<?xml version="1.0" encoding="iso-8859-1"?>
<!-- Uploaded to: SVG Repo, www.svgrepo.com, Generator: SVG Repo Mixer Tools -->
<svg height="800px" width="800px" version="1.1" id="Layer_1" xmlns="http://www.w3.org/2000/svg" xmlns:xlink="http://www.w3.org/1999/xlink" 
	 viewBox="0 0 512 512" xml:space="preserve">
<path style="fill:#F95428;" d="M446.516,137.066l-27.752,27.752l-57.847,57.858l-81.916,81.916l-17.117,17.117l-16.002,15.99
	L125.77,457.813c-3.805,3.805-9.965,3.805-13.77,0l-18.144-18.144c-3.805-3.805-3.805-9.965,0-13.77l113.016-113.027
	c2.366-2.366,4.676-4.798,6.885-7.298c4.954-5.535,9.53-11.382,13.725-17.486c1.707-2.488,3.359-5.033,4.932-7.61
	c4.051-6.584,7.655-13.446,10.802-20.521c1.518-3.415,3.136-6.784,4.876-10.087c8.157-15.656,18.657-29.983,31.122-42.515
	l24.493-24.493l94.302-94.302c4.028-4.028,10.567-4.028,14.596,0l33.911,33.911C450.544,126.499,450.544,133.038,446.516,137.066z"
	/>
<g>
	<path style="fill:#E03F20;" d="M226.915,292.833l14.992,14.992L101.963,447.77l-8.111-8.111c-3.8-3.8-3.8-9.961,0-13.761
		L226.915,292.833z"/>
	<path style="fill:#E03F20;" d="M420.304,96.259l-186.06,186.049l-1.83-1.83c4.051-6.584,7.655-13.446,10.802-20.521
		c8.693-19.606,20.9-37.426,35.998-52.602L398.01,88.558c4.031-4.031,10.564-4.031,14.594,0L420.304,96.259z"/>
	<path style="fill:#E03F20;" d="M418.764,164.818l-57.847,57.858l-10.043,10.043c-3.18-4.821-6.606-9.53-10.277-14.138
		c-2.031-2.555-4.118-5.055-6.26-7.499c-9.362-10.645-19.639-20.075-30.631-28.22l68.448-68.448c1.852,3.102,3.827,6.137,5.97,9.061
		c1.607,2.209,3.281,4.397,4.999,6.55C393.747,143.371,405.753,154.987,418.764,164.818z"/>
</g>
<path style="fill:#B3B3B3;" d="M511.998,191.389c-45.298-8.388-87.889-32.539-118.833-71.402c-1.718-2.158-3.387-4.342-5-6.549
	c-4.376-5.982-8.063-12.424-11.477-19.004c-1.76-3.391-3.787-6.692-6.087-9.865c-0.742-1.057-1.541-2.101-2.36-3.13
	c-24.108-30.28-65.737-38.357-98.877-21.33l55.396,69.578l-34.99,27.859c20.159,10.869,38.714,25.406,54.607,43.498
	c2.145,2.445,4.228,4.938,6.267,7.499c22.368,28.094,35.892,60.394,40.92,93.529c23.757-4.844,46.766-15.222,67.035-31.359
	C485.14,249.58,503.118,221.624,511.998,191.389z"/>
<path style="fill:#E03F20;" d="M279.001,304.592l-17.117,17.117l-16.002,15.99l-32.126-32.126
	c4.954-5.535,9.53-11.382,13.725-17.486c1.707-2.488,3.359-5.033,4.932-7.61c4.051-6.584,7.655-13.446,10.802-20.521
	c1.518-3.415,3.136-6.784,4.876-10.087c3.95,6.472,7.488,13.223,10.59,20.197c4.374,9.853,9.63,19.293,15.711,28.131
	C275.877,300.363,277.417,302.494,279.001,304.592z"/>
<path style="fill:#E6E6E6;" d="M384.5,271.808c3.169,9.942,5.512,20.063,7.063,30.262c23.757-4.843,46.766-15.221,67.03-31.356
	c26.547-21.135,44.523-49.087,53.406-79.327c-10.645-1.975-21.146-4.809-31.378-8.514c-9.976,23.701-25.877,45.327-47.402,62.467
	C418.211,257.29,401.696,266.084,384.5,271.808z"/>
<path style="fill:#F95428;" d="M418.153,439.664l-18.162,18.155c-3.801,3.798-9.96,3.798-13.76-0.001L151.089,222.676
	l-57.858-57.858l-10.043-10.043l-17.71-17.71c-4.031-4.031-4.031-10.564,0-14.594l33.912-33.912c4.031-4.031,10.564-4.031,14.594,0
	l25.856,25.856l58.405,58.394l10.054,10.054l24.159,24.17c15.254,15.254,27.573,33.186,36.333,52.926
	c4.374,9.853,9.641,19.282,15.723,28.131c6.082,8.849,12.978,17.162,20.61,24.784l113.03,113.03
	C421.955,429.703,421.954,435.865,418.153,439.664z"/>
<g>
	<path style="fill:#E03F20;" d="M166.076,207.682L98.18,139.786l-25.006-25.007l-7.695,7.695c-4.031,4.031-4.031,10.564,0,14.594
		l17.709,17.709l67.896,67.896l99.033,99.033L386.232,457.82c3.8,3.8,9.961,3.8,13.761,0l8.111-8.111L265.109,306.714
		L166.076,207.682z"/>
	<path style="fill:#E03F20;" d="M190.184,164.746c-10.991,8.146-21.269,17.564-30.631,28.22c-2.142,2.444-4.229,4.943-6.271,7.499
		c-3.66,4.609-7.086,9.318-10.266,14.138l-10.043-10.043l-57.858-57.858c13.011-9.831,25.018-21.447,35.641-34.793
		c1.718-2.154,3.392-4.341,5.01-6.55c2.142-2.924,4.106-5.959,5.959-9.061l58.405,58.394L190.184,164.746z"/>
</g>
<path style="fill:#B3B3B3;" d="M0.002,191.389c45.298-8.388,87.889-32.539,118.833-71.402c1.718-2.158,3.387-4.342,5-6.549
	c4.376-5.982,8.063-12.424,11.477-19.004c1.76-3.391,3.787-6.692,6.087-9.865c0.742-1.057,1.541-2.101,2.36-3.13
	c24.108-30.28,65.737-38.357,98.877-21.33l-55.396,69.578l34.99,27.859c-20.159,10.869-38.714,25.406-54.607,43.498
	c-2.145,2.445-4.228,4.938-6.267,7.499c-22.368,28.094-35.892,60.394-40.92,93.529c-23.757-4.844-46.766-15.222-67.035-31.359
	C26.859,249.58,8.882,221.624,0.002,191.389z"/>
<path style="fill:#E6E6E6;" d="M127.5,271.808c-3.169,9.942-5.512,20.063-7.063,30.262c-23.757-4.843-46.766-15.221-67.03-31.356
	C26.859,249.58,8.882,221.627,0,191.387c10.645-1.975,21.146-4.809,31.378-8.514c9.976,23.701,25.877,45.327,47.402,62.467
	C93.789,257.29,110.304,266.084,127.5,271.808z"/>
</svg>